<?xml version="1.0" encoding="utf-8"?>
<!-- Generator: Adobe Illustrator 24.1.3, SVG Export Plug-In . SVG Version: 6.00 Build 0)  -->
<svg version="1.1" id="Layer_1" xmlns="http://www.w3.org/2000/svg" xmlns:xlink="http://www.w3.org/1999/xlink" x="0px" y="0px"
	 viewBox="0 0 218 122" style="enable-background:new 0 0 218 122;" xml:space="preserve">
<style type="text/css">
	.st0{clip-path:url(#SVGID_2_);fill:#5B6770;}
	.st1{clip-path:url(#SVGID_2_);}
	.st2{clip-path:url(#SVGID_4_);fill:#7B848C;}
	.st3{fill:#78D64B;}
	.st4{fill:#FFFFFF;}
	.st5{font-family:'Montserrat-Bold';}
	.st6{font-size:10.209px;}
	.st7{fill:#FF8300;}
	.st8{font-size:6.4841px;}
</style>
<g id="Layer_2">
</g>
<g>
	<defs>
		<rect id="SVGID_1_" width="218" height="122"/>
	</defs>
	<clipPath id="SVGID_2_">
		<use xlink:href="#SVGID_1_"  style="overflow:visible;"/>
	</clipPath>
	<rect x="-7" y="-6" class="st0" width="264" height="146"/>
	<g class="st1">
		<defs>
			<rect id="SVGID_3_" x="13.5" y="-9.1" width="134.5" height="142.6"/>
		</defs>
		<clipPath id="SVGID_4_">
			<use xlink:href="#SVGID_3_"  style="overflow:visible;"/>
		</clipPath>
		<path class="st2" d="M25,40.6c0.8,0,1.4,0.6,1.4,1.4c0,0.8-0.6,1.4-1.4,1.4c-0.8,0-1.4-0.6-1.4-1.4C23.6,41.2,24.3,40.6,25,40.6"
			/>
		<path class="st2" d="M35.2,40.6c0.8,0,1.4,0.6,1.4,1.4c0,0.8-0.6,1.4-1.4,1.4c-0.8,0-1.4-0.6-1.4-1.4
			C33.7,41.2,34.4,40.6,35.2,40.6"/>
		<path class="st2" d="M46.7,42c0,0.8-0.6,1.4-1.4,1.4c-0.8,0-1.4-0.6-1.4-1.4c0-0.8,0.6-1.4,1.4-1.4C46.1,40.6,46.7,41.2,46.7,42"
			/>
		<path class="st2" d="M55.4,40.6c0.8,0,1.4,0.6,1.4,1.4c0,0.8-0.6,1.4-1.4,1.4c-0.8,0-1.4-0.6-1.4-1.4C54,41.2,54.6,40.6,55.4,40.6
			"/>
		<path class="st2" d="M65.6,40.6c0.8,0,1.4,0.6,1.4,1.4c0,0.8-0.6,1.4-1.4,1.4c-0.8,0-1.4-0.6-1.4-1.4
			C64.1,41.2,64.8,40.6,65.6,40.6"/>
		<path class="st2" d="M77.1,42c0,0.8-0.6,1.4-1.4,1.4c-0.8,0-1.4-0.6-1.4-1.4c0-0.8,0.6-1.4,1.4-1.4C76.5,40.6,77.1,41.2,77.1,42"
			/>
		<path class="st2" d="M85.8,40.6c0.8,0,1.4,0.6,1.4,1.4c0,0.8-0.6,1.4-1.4,1.4c-0.8,0-1.4-0.6-1.4-1.4C84.4,41.2,85,40.6,85.8,40.6
			"/>
		<path class="st2" d="M95.9,40.6c0.8,0,1.4,0.6,1.4,1.4c0,0.8-0.6,1.4-1.4,1.4c-0.8,0-1.4-0.6-1.4-1.4
			C94.5,41.2,95.1,40.6,95.9,40.6"/>
		<path class="st2" d="M107.5,42c0,0.8-0.6,1.4-1.4,1.4c-0.8,0-1.4-0.6-1.4-1.4c0-0.8,0.6-1.4,1.4-1.4
			C106.9,40.6,107.5,41.2,107.5,42"/>
		<path class="st2" d="M116.2,40.6c0.8,0,1.4,0.6,1.4,1.4c0,0.8-0.6,1.4-1.4,1.4c-0.8,0-1.4-0.6-1.4-1.4
			C114.7,41.2,115.4,40.6,116.2,40.6"/>
		<path class="st2" d="M126.3,40.6c0.8,0,1.4,0.6,1.4,1.4c0,0.8-0.6,1.4-1.4,1.4c-0.8,0-1.4-0.6-1.4-1.4
			C124.9,41.2,125.5,40.6,126.3,40.6"/>
		<path class="st2" d="M137.9,42c0,0.8-0.6,1.4-1.4,1.4c-0.8,0-1.4-0.6-1.4-1.4c0-0.8,0.6-1.4,1.4-1.4
			C137.2,40.6,137.9,41.2,137.9,42"/>
		<path class="st2" d="M146.6,40.6c0.8,0,1.4,0.6,1.4,1.4c0,0.8-0.6,1.4-1.4,1.4c-0.8,0-1.4-0.6-1.4-1.4
			C145.1,41.2,145.8,40.6,146.6,40.6"/>
		<path class="st2" d="M16.4,52.3c0,0.8-0.6,1.4-1.4,1.4c-0.8,0-1.4-0.6-1.4-1.4c0-0.8,0.6-1.4,1.4-1.4
			C15.7,50.9,16.4,51.5,16.4,52.3"/>
		<path class="st2" d="M16.4,42c0,0.8-0.6,1.4-1.4,1.4c-0.8,0-1.4-0.6-1.4-1.4c0-0.8,0.6-1.4,1.4-1.4C15.7,40.6,16.4,41.2,16.4,42"
			/>
		<path class="st2" d="M25,50.9c0.8,0,1.4,0.6,1.4,1.4c0,0.8-0.6,1.4-1.4,1.4c-0.8,0-1.4-0.6-1.4-1.4C23.6,51.5,24.3,50.9,25,50.9"
			/>
		<path class="st2" d="M35.2,50.9c0.8,0,1.4,0.6,1.4,1.4c0,0.8-0.6,1.4-1.4,1.4c-0.8,0-1.4-0.6-1.4-1.4
			C33.7,51.5,34.4,50.9,35.2,50.9"/>
		<path class="st2" d="M46.7,52.3c0,0.8-0.6,1.4-1.4,1.4c-0.8,0-1.4-0.6-1.4-1.4c0-0.8,0.6-1.4,1.4-1.4
			C46.1,50.9,46.7,51.5,46.7,52.3"/>
		<path class="st2" d="M55.4,50.9c0.8,0,1.4,0.6,1.4,1.4c0,0.8-0.6,1.4-1.4,1.4c-0.8,0-1.4-0.6-1.4-1.4C54,51.5,54.6,50.9,55.4,50.9
			"/>
		<path class="st2" d="M65.6,50.9c0.8,0,1.4,0.6,1.4,1.4c0,0.8-0.6,1.4-1.4,1.4c-0.8,0-1.4-0.6-1.4-1.4
			C64.1,51.5,64.8,50.9,65.6,50.9"/>
		<path class="st2" d="M77.1,52.3c0,0.8-0.6,1.4-1.4,1.4c-0.8,0-1.4-0.6-1.4-1.4c0-0.8,0.6-1.4,1.4-1.4
			C76.5,50.9,77.1,51.5,77.1,52.3"/>
		<path class="st2" d="M85.8,50.9c0.8,0,1.4,0.6,1.4,1.4c0,0.8-0.6,1.4-1.4,1.4c-0.8,0-1.4-0.6-1.4-1.4C84.4,51.5,85,50.9,85.8,50.9
			"/>
		<path class="st2" d="M95.9,50.9c0.8,0,1.4,0.6,1.4,1.4c0,0.8-0.6,1.4-1.4,1.4c-0.8,0-1.4-0.6-1.4-1.4
			C94.5,51.5,95.1,50.9,95.9,50.9"/>
		<path class="st2" d="M107.5,52.3c0,0.8-0.6,1.4-1.4,1.4c-0.8,0-1.4-0.6-1.4-1.4c0-0.8,0.6-1.4,1.4-1.4
			C106.9,50.9,107.5,51.5,107.5,52.3"/>
		<path class="st2" d="M116.2,50.9c0.8,0,1.4,0.6,1.4,1.4c0,0.8-0.6,1.4-1.4,1.4c-0.8,0-1.4-0.6-1.4-1.4
			C114.7,51.5,115.4,50.9,116.2,50.9"/>
		<path class="st2" d="M126.3,50.9c0.8,0,1.4,0.6,1.4,1.4c0,0.8-0.6,1.4-1.4,1.4c-0.8,0-1.4-0.6-1.4-1.4
			C124.9,51.5,125.5,50.9,126.3,50.9"/>
		<path class="st2" d="M137.9,52.3c0,0.8-0.6,1.4-1.4,1.4c-0.8,0-1.4-0.6-1.4-1.4c0-0.8,0.6-1.4,1.4-1.4
			C137.2,50.9,137.9,51.5,137.9,52.3"/>
		<path class="st2" d="M146.6,50.9c0.8,0,1.4,0.6,1.4,1.4c0,0.8-0.6,1.4-1.4,1.4c-0.8,0-1.4-0.6-1.4-1.4
			C145.1,51.5,145.8,50.9,146.6,50.9"/>
		<path class="st2" d="M16.4,62.2c0,0.8-0.6,1.4-1.4,1.4c-0.8,0-1.4-0.6-1.4-1.4c0-0.8,0.6-1.4,1.4-1.4
			C15.7,60.8,16.4,61.4,16.4,62.2"/>
		<path class="st2" d="M25,60.8c0.8,0,1.4,0.6,1.4,1.4c0,0.8-0.6,1.4-1.4,1.4c-0.8,0-1.4-0.6-1.4-1.4C23.6,61.4,24.3,60.8,25,60.8"
			/>
		<path class="st2" d="M35.2,60.8c0.8,0,1.4,0.6,1.4,1.4c0,0.8-0.6,1.4-1.4,1.4c-0.8,0-1.4-0.6-1.4-1.4
			C33.7,61.4,34.4,60.8,35.2,60.8"/>
		<path class="st2" d="M46.7,62.2c0,0.8-0.6,1.4-1.4,1.4c-0.8,0-1.4-0.6-1.4-1.4c0-0.8,0.6-1.4,1.4-1.4
			C46.1,60.8,46.7,61.4,46.7,62.2"/>
		<path class="st2" d="M55.4,60.8c0.8,0,1.4,0.6,1.4,1.4c0,0.8-0.6,1.4-1.4,1.4c-0.8,0-1.4-0.6-1.4-1.4C54,61.4,54.6,60.8,55.4,60.8
			"/>
		<path class="st2" d="M65.6,60.8c0.8,0,1.4,0.6,1.4,1.4c0,0.8-0.6,1.4-1.4,1.4c-0.8,0-1.4-0.6-1.4-1.4
			C64.1,61.4,64.8,60.8,65.6,60.8"/>
		<path class="st2" d="M77.1,62.2c0,0.8-0.6,1.4-1.4,1.4c-0.8,0-1.4-0.6-1.4-1.4c0-0.8,0.6-1.4,1.4-1.4
			C76.5,60.8,77.1,61.4,77.1,62.2"/>
		<path class="st2" d="M85.8,60.8c0.8,0,1.4,0.6,1.4,1.4c0,0.8-0.6,1.4-1.4,1.4c-0.8,0-1.4-0.6-1.4-1.4C84.4,61.4,85,60.8,85.8,60.8
			"/>
		<path class="st2" d="M95.9,60.8c0.8,0,1.4,0.6,1.4,1.4c0,0.8-0.6,1.4-1.4,1.4c-0.8,0-1.4-0.6-1.4-1.4
			C94.5,61.4,95.1,60.8,95.9,60.8"/>
		<path class="st2" d="M107.5,62.2c0,0.8-0.6,1.4-1.4,1.4c-0.8,0-1.4-0.6-1.4-1.4c0-0.8,0.6-1.4,1.4-1.4
			C106.9,60.8,107.5,61.4,107.5,62.2"/>
		<path class="st2" d="M116.2,60.8c0.8,0,1.4,0.6,1.4,1.4c0,0.8-0.6,1.4-1.4,1.4c-0.8,0-1.4-0.6-1.4-1.4
			C114.7,61.4,115.4,60.8,116.2,60.8"/>
		<path class="st2" d="M126.3,60.8c0.8,0,1.4,0.6,1.4,1.4c0,0.8-0.6,1.4-1.4,1.4c-0.8,0-1.4-0.6-1.4-1.4
			C124.9,61.4,125.5,60.8,126.3,60.8"/>
		<path class="st2" d="M137.9,62.2c0,0.8-0.6,1.4-1.4,1.4c-0.8,0-1.4-0.6-1.4-1.4c0-0.8,0.6-1.4,1.4-1.4
			C137.2,60.8,137.9,61.4,137.9,62.2"/>
		<path class="st2" d="M146.6,60.8c0.8,0,1.4,0.6,1.4,1.4c0,0.8-0.6,1.4-1.4,1.4c-0.8,0-1.4-0.6-1.4-1.4
			C145.1,61.4,145.8,60.8,146.6,60.8"/>
		<path class="st2" d="M16.4,71.9c0,0.8-0.6,1.4-1.4,1.4c-0.8,0-1.4-0.6-1.4-1.4c0-0.8,0.6-1.4,1.4-1.4
			C15.7,70.5,16.4,71.1,16.4,71.9"/>
		<path class="st2" d="M25,70.5c0.8,0,1.4,0.6,1.4,1.4c0,0.8-0.6,1.4-1.4,1.4c-0.8,0-1.4-0.6-1.4-1.4C23.6,71.1,24.3,70.5,25,70.5"
			/>
		<path class="st2" d="M35.2,70.5c0.8,0,1.4,0.6,1.4,1.4c0,0.8-0.6,1.4-1.4,1.4c-0.8,0-1.4-0.6-1.4-1.4
			C33.7,71.1,34.4,70.5,35.2,70.5"/>
		<path class="st2" d="M46.7,71.9c0,0.8-0.6,1.4-1.4,1.4c-0.8,0-1.4-0.6-1.4-1.4c0-0.8,0.6-1.4,1.4-1.4
			C46.1,70.5,46.7,71.1,46.7,71.9"/>
		<path class="st2" d="M55.4,70.5c0.8,0,1.4,0.6,1.4,1.4c0,0.8-0.6,1.4-1.4,1.4c-0.8,0-1.4-0.6-1.4-1.4C54,71.1,54.6,70.5,55.4,70.5
			"/>
		<path class="st2" d="M65.6,70.5c0.8,0,1.4,0.6,1.4,1.4c0,0.8-0.6,1.4-1.4,1.4c-0.8,0-1.4-0.6-1.4-1.4
			C64.1,71.1,64.8,70.5,65.6,70.5"/>
		<path class="st2" d="M77.1,71.9c0,0.8-0.6,1.4-1.4,1.4c-0.8,0-1.4-0.6-1.4-1.4c0-0.8,0.6-1.4,1.4-1.4
			C76.5,70.5,77.1,71.1,77.1,71.9"/>
		<path class="st2" d="M85.8,70.5c0.8,0,1.4,0.6,1.4,1.4c0,0.8-0.6,1.4-1.4,1.4c-0.8,0-1.4-0.6-1.4-1.4C84.4,71.1,85,70.5,85.8,70.5
			"/>
		<path class="st2" d="M95.9,70.5c0.8,0,1.4,0.6,1.4,1.4c0,0.8-0.6,1.4-1.4,1.4c-0.8,0-1.4-0.6-1.4-1.4
			C94.5,71.1,95.1,70.5,95.9,70.5"/>
		<path class="st2" d="M107.5,71.9c0,0.8-0.6,1.4-1.4,1.4c-0.8,0-1.4-0.6-1.4-1.4c0-0.8,0.6-1.4,1.4-1.4
			C106.9,70.5,107.5,71.1,107.5,71.9"/>
		<path class="st2" d="M116.2,70.5c0.8,0,1.4,0.6,1.4,1.4c0,0.8-0.6,1.4-1.4,1.4c-0.8,0-1.4-0.6-1.4-1.4
			C114.7,71.1,115.4,70.5,116.2,70.5"/>
		<path class="st2" d="M126.3,70.5c0.8,0,1.4,0.6,1.4,1.4c0,0.8-0.6,1.4-1.4,1.4c-0.8,0-1.4-0.6-1.4-1.4
			C124.9,71.1,125.5,70.5,126.3,70.5"/>
		<path class="st2" d="M137.9,71.9c0,0.8-0.6,1.4-1.4,1.4c-0.8,0-1.4-0.6-1.4-1.4c0-0.8,0.6-1.4,1.4-1.4
			C137.2,70.5,137.9,71.1,137.9,71.9"/>
		<path class="st2" d="M146.6,70.5c0.8,0,1.4,0.6,1.4,1.4c0,0.8-0.6,1.4-1.4,1.4c-0.8,0-1.4-0.6-1.4-1.4
			C145.1,71.1,145.8,70.5,146.6,70.5"/>
		<path class="st2" d="M16.4,81.9c0,0.8-0.6,1.4-1.4,1.4c-0.8,0-1.4-0.6-1.4-1.4c0-0.8,0.6-1.4,1.4-1.4
			C15.7,80.5,16.4,81.1,16.4,81.9"/>
		<path class="st2" d="M25,80.5c0.8,0,1.4,0.6,1.4,1.4c0,0.8-0.6,1.4-1.4,1.4c-0.8,0-1.4-0.6-1.4-1.4C23.6,81.1,24.3,80.5,25,80.5"
			/>
		<path class="st2" d="M35.2,80.5c0.8,0,1.4,0.6,1.4,1.4c0,0.8-0.6,1.4-1.4,1.4c-0.8,0-1.4-0.6-1.4-1.4
			C33.7,81.1,34.4,80.5,35.2,80.5"/>
		<path class="st2" d="M46.7,81.9c0,0.8-0.6,1.4-1.4,1.4c-0.8,0-1.4-0.6-1.4-1.4c0-0.8,0.6-1.4,1.4-1.4
			C46.1,80.5,46.7,81.1,46.7,81.9"/>
		<path class="st2" d="M55.4,80.5c0.8,0,1.4,0.6,1.4,1.4c0,0.8-0.6,1.4-1.4,1.4c-0.8,0-1.4-0.6-1.4-1.4C54,81.1,54.6,80.5,55.4,80.5
			"/>
		<path class="st2" d="M65.6,80.5c0.8,0,1.4,0.6,1.4,1.4c0,0.8-0.6,1.4-1.4,1.4c-0.8,0-1.4-0.6-1.4-1.4
			C64.1,81.1,64.8,80.5,65.6,80.5"/>
		<path class="st2" d="M77.1,81.9c0,0.8-0.6,1.4-1.4,1.4c-0.8,0-1.4-0.6-1.4-1.4c0-0.8,0.6-1.4,1.4-1.4
			C76.5,80.5,77.1,81.1,77.1,81.9"/>
		<path class="st2" d="M85.8,80.5c0.8,0,1.4,0.6,1.4,1.4c0,0.8-0.6,1.4-1.4,1.4c-0.8,0-1.4-0.6-1.4-1.4C84.4,81.1,85,80.5,85.8,80.5
			"/>
		<path class="st2" d="M95.9,80.5c0.8,0,1.4,0.6,1.4,1.4c0,0.8-0.6,1.4-1.4,1.4c-0.8,0-1.4-0.6-1.4-1.4
			C94.5,81.1,95.1,80.5,95.9,80.5"/>
		<path class="st2" d="M107.5,81.9c0,0.8-0.6,1.4-1.4,1.4c-0.8,0-1.4-0.6-1.4-1.4c0-0.8,0.6-1.4,1.4-1.4
			C106.9,80.5,107.5,81.1,107.5,81.9"/>
		<path class="st2" d="M116.2,80.5c0.8,0,1.4,0.6,1.4,1.4c0,0.8-0.6,1.4-1.4,1.4c-0.8,0-1.4-0.6-1.4-1.4
			C114.7,81.1,115.4,80.5,116.2,80.5"/>
		<path class="st2" d="M126.3,80.5c0.8,0,1.4,0.6,1.4,1.4c0,0.8-0.6,1.4-1.4,1.4c-0.8,0-1.4-0.6-1.4-1.4
			C124.9,81.1,125.5,80.5,126.3,80.5"/>
		<path class="st2" d="M137.9,81.9c0,0.8-0.6,1.4-1.4,1.4c-0.8,0-1.4-0.6-1.4-1.4c0-0.8,0.6-1.4,1.4-1.4
			C137.2,80.5,137.9,81.1,137.9,81.9"/>
		<path class="st2" d="M146.6,80.5c0.8,0,1.4,0.6,1.4,1.4c0,0.8-0.6,1.4-1.4,1.4c-0.8,0-1.4-0.6-1.4-1.4
			C145.1,81.1,145.8,80.5,146.6,80.5"/>
		<path class="st2" d="M65.6-9.1c0.8,0,1.4,0.6,1.4,1.4c0,0.8-0.6,1.4-1.4,1.4c-0.8,0-1.4-0.6-1.4-1.4C64.1-8.4,64.8-9.1,65.6-9.1"
			/>
		<path class="st2" d="M77.1-7.7c0,0.8-0.6,1.4-1.4,1.4c-0.8,0-1.4-0.6-1.4-1.4c0-0.8,0.6-1.4,1.4-1.4C76.5-9.1,77.1-8.4,77.1-7.7"
			/>
		<path class="st2" d="M85.8-9.1c0.8,0,1.4,0.6,1.4,1.4c0,0.8-0.6,1.4-1.4,1.4c-0.8,0-1.4-0.6-1.4-1.4C84.4-8.4,85-9.1,85.8-9.1"/>
		<path class="st2" d="M46.7,2.6c0,0.8-0.6,1.4-1.4,1.4c-0.8,0-1.4-0.6-1.4-1.4c0-0.8,0.6-1.4,1.4-1.4C46.1,1.2,46.7,1.8,46.7,2.6"
			/>
		<path class="st2" d="M55.4,1.2c0.8,0,1.4,0.6,1.4,1.4c0,0.8-0.6,1.4-1.4,1.4c-0.8,0-1.4-0.6-1.4-1.4C54,1.8,54.6,1.2,55.4,1.2"/>
		<path class="st2" d="M65.6,1.2c0.8,0,1.4,0.6,1.4,1.4c0,0.8-0.6,1.4-1.4,1.4c-0.8,0-1.4-0.6-1.4-1.4C64.1,1.8,64.8,1.2,65.6,1.2"
			/>
		<path class="st2" d="M77.1,2.6c0,0.8-0.6,1.4-1.4,1.4c-0.8,0-1.4-0.6-1.4-1.4c0-0.8,0.6-1.4,1.4-1.4C76.5,1.2,77.1,1.8,77.1,2.6"
			/>
		<path class="st2" d="M85.8,1.2c0.8,0,1.4,0.6,1.4,1.4c0,0.8-0.6,1.4-1.4,1.4c-0.8,0-1.4-0.6-1.4-1.4C84.4,1.8,85,1.2,85.8,1.2"/>
		<path class="st2" d="M95.9,1.2c0.8,0,1.4,0.6,1.4,1.4c0,0.8-0.6,1.4-1.4,1.4c-0.8,0-1.4-0.6-1.4-1.4C94.5,1.8,95.1,1.2,95.9,1.2"
			/>
		<path class="st2" d="M95.9-9.1c0.8,0,1.4,0.6,1.4,1.4c0,0.8-0.6,1.4-1.4,1.4c-0.8,0-1.4-0.6-1.4-1.4C94.5-8.4,95.1-9.1,95.9-9.1"
			/>
		<path class="st2" d="M107.5,2.6c0,0.8-0.6,1.4-1.4,1.4c-0.8,0-1.4-0.6-1.4-1.4c0-0.8,0.6-1.4,1.4-1.4
			C106.9,1.2,107.5,1.8,107.5,2.6"/>
		<path class="st2" d="M116.2,1.2c0.8,0,1.4,0.6,1.4,1.4c0,0.8-0.6,1.4-1.4,1.4c-0.8,0-1.4-0.6-1.4-1.4
			C114.7,1.8,115.4,1.2,116.2,1.2"/>
		<path class="st2" d="M35.2,11.1c0.8,0,1.4,0.6,1.4,1.4c0,0.8-0.6,1.4-1.4,1.4c-0.8,0-1.4-0.6-1.4-1.4
			C33.7,11.7,34.4,11.1,35.2,11.1"/>
		<path class="st2" d="M46.7,12.5c0,0.8-0.6,1.4-1.4,1.4c-0.8,0-1.4-0.6-1.4-1.4c0-0.8,0.6-1.4,1.4-1.4
			C46.1,11.1,46.7,11.7,46.7,12.5"/>
		<path class="st2" d="M55.4,11.1c0.8,0,1.4,0.6,1.4,1.4c0,0.8-0.6,1.4-1.4,1.4c-0.8,0-1.4-0.6-1.4-1.4C54,11.7,54.6,11.1,55.4,11.1
			"/>
		<path class="st2" d="M65.6,11.1c0.8,0,1.4,0.6,1.4,1.4c0,0.8-0.6,1.4-1.4,1.4c-0.8,0-1.4-0.6-1.4-1.4
			C64.1,11.7,64.8,11.1,65.6,11.1"/>
		<path class="st2" d="M77.1,12.5c0,0.8-0.6,1.4-1.4,1.4c-0.8,0-1.4-0.6-1.4-1.4c0-0.8,0.6-1.4,1.4-1.4
			C76.5,11.1,77.1,11.7,77.1,12.5"/>
		<path class="st2" d="M85.8,11.1c0.8,0,1.4,0.6,1.4,1.4c0,0.8-0.6,1.4-1.4,1.4c-0.8,0-1.4-0.6-1.4-1.4C84.4,11.7,85,11.1,85.8,11.1
			"/>
		<path class="st2" d="M95.9,11.1c0.8,0,1.4,0.6,1.4,1.4c0,0.8-0.6,1.4-1.4,1.4c-0.8,0-1.4-0.6-1.4-1.4
			C94.5,11.7,95.1,11.1,95.9,11.1"/>
		<path class="st2" d="M107.5,12.5c0,0.8-0.6,1.4-1.4,1.4c-0.8,0-1.4-0.6-1.4-1.4c0-0.8,0.6-1.4,1.4-1.4
			C106.9,11.1,107.5,11.7,107.5,12.5"/>
		<path class="st2" d="M116.2,11.1c0.8,0,1.4,0.6,1.4,1.4c0,0.8-0.6,1.4-1.4,1.4c-0.8,0-1.4-0.6-1.4-1.4
			C114.7,11.7,115.4,11.1,116.2,11.1"/>
		<path class="st2" d="M126.3,11.1c0.8,0,1.4,0.6,1.4,1.4c0,0.8-0.6,1.4-1.4,1.4c-0.8,0-1.4-0.6-1.4-1.4
			C124.9,11.7,125.5,11.1,126.3,11.1"/>
		<path class="st2" d="M25,20.8c0.8,0,1.4,0.6,1.4,1.4c0,0.8-0.6,1.4-1.4,1.4c-0.8,0-1.4-0.6-1.4-1.4C23.6,21.4,24.3,20.8,25,20.8"
			/>
		<path class="st2" d="M35.2,20.8c0.8,0,1.4,0.6,1.4,1.4c0,0.8-0.6,1.4-1.4,1.4c-0.8,0-1.4-0.6-1.4-1.4
			C33.7,21.4,34.4,20.8,35.2,20.8"/>
		<path class="st2" d="M46.7,22.2c0,0.8-0.6,1.4-1.4,1.4c-0.8,0-1.4-0.6-1.4-1.4c0-0.8,0.6-1.4,1.4-1.4
			C46.1,20.8,46.7,21.4,46.7,22.2"/>
		<path class="st2" d="M55.4,20.8c0.8,0,1.4,0.6,1.4,1.4c0,0.8-0.6,1.4-1.4,1.4c-0.8,0-1.4-0.6-1.4-1.4C54,21.4,54.6,20.8,55.4,20.8
			"/>
		<path class="st2" d="M65.6,20.8c0.8,0,1.4,0.6,1.4,1.4c0,0.8-0.6,1.4-1.4,1.4c-0.8,0-1.4-0.6-1.4-1.4
			C64.1,21.4,64.8,20.8,65.6,20.8"/>
		<path class="st2" d="M77.1,22.2c0,0.8-0.6,1.4-1.4,1.4c-0.8,0-1.4-0.6-1.4-1.4c0-0.8,0.6-1.4,1.4-1.4
			C76.5,20.8,77.1,21.4,77.1,22.2"/>
		<path class="st2" d="M85.8,20.8c0.8,0,1.4,0.6,1.4,1.4c0,0.8-0.6,1.4-1.4,1.4c-0.8,0-1.4-0.6-1.4-1.4C84.4,21.4,85,20.8,85.8,20.8
			"/>
		<path class="st2" d="M95.9,20.8c0.8,0,1.4,0.6,1.4,1.4c0,0.8-0.6,1.4-1.4,1.4c-0.8,0-1.4-0.6-1.4-1.4
			C94.5,21.4,95.1,20.8,95.9,20.8"/>
		<path class="st2" d="M107.5,22.2c0,0.8-0.6,1.4-1.4,1.4c-0.8,0-1.4-0.6-1.4-1.4c0-0.8,0.6-1.4,1.4-1.4
			C106.9,20.8,107.5,21.4,107.5,22.2"/>
		<path class="st2" d="M116.2,20.8c0.8,0,1.4,0.6,1.4,1.4c0,0.8-0.6,1.4-1.4,1.4c-0.8,0-1.4-0.6-1.4-1.4
			C114.7,21.4,115.4,20.8,116.2,20.8"/>
		<path class="st2" d="M126.3,20.8c0.8,0,1.4,0.6,1.4,1.4c0,0.8-0.6,1.4-1.4,1.4c-0.8,0-1.4-0.6-1.4-1.4
			C124.9,21.4,125.5,20.8,126.3,20.8"/>
		<path class="st2" d="M137.9,22.2c0,0.8-0.6,1.4-1.4,1.4c-0.8,0-1.4-0.6-1.4-1.4c0-0.8,0.6-1.4,1.4-1.4
			C137.2,20.8,137.9,21.4,137.9,22.2"/>
		<path class="st2" d="M25,30.8c0.8,0,1.4,0.6,1.4,1.4c0,0.8-0.6,1.4-1.4,1.4c-0.8,0-1.4-0.6-1.4-1.4C23.6,31.5,24.3,30.8,25,30.8"
			/>
		<path class="st2" d="M35.2,30.8c0.8,0,1.4,0.6,1.4,1.4c0,0.8-0.6,1.4-1.4,1.4c-0.8,0-1.4-0.6-1.4-1.4
			C33.7,31.5,34.4,30.8,35.2,30.8"/>
		<path class="st2" d="M46.7,32.2c0,0.8-0.6,1.4-1.4,1.4c-0.8,0-1.4-0.6-1.4-1.4c0-0.8,0.6-1.4,1.4-1.4
			C46.1,30.8,46.7,31.4,46.7,32.2"/>
		<path class="st2" d="M55.4,30.8c0.8,0,1.4,0.6,1.4,1.4c0,0.8-0.6,1.4-1.4,1.4c-0.8,0-1.4-0.6-1.4-1.4C54,31.5,54.6,30.8,55.4,30.8
			"/>
		<path class="st2" d="M65.6,30.8c0.8,0,1.4,0.6,1.4,1.4c0,0.8-0.6,1.4-1.4,1.4c-0.8,0-1.4-0.6-1.4-1.4
			C64.1,31.5,64.8,30.8,65.6,30.8"/>
		<path class="st2" d="M77.1,32.2c0,0.8-0.6,1.4-1.4,1.4c-0.8,0-1.4-0.6-1.4-1.4c0-0.8,0.6-1.4,1.4-1.4
			C76.5,30.8,77.1,31.4,77.1,32.2"/>
		<path class="st2" d="M85.8,30.8c0.8,0,1.4,0.6,1.4,1.4c0,0.8-0.6,1.4-1.4,1.4c-0.8,0-1.4-0.6-1.4-1.4C84.4,31.5,85,30.8,85.8,30.8
			"/>
		<path class="st2" d="M95.9,30.8c0.8,0,1.4,0.6,1.4,1.4c0,0.8-0.6,1.4-1.4,1.4c-0.8,0-1.4-0.6-1.4-1.4
			C94.5,31.5,95.1,30.8,95.9,30.8"/>
		<path class="st2" d="M107.5,32.2c0,0.8-0.6,1.4-1.4,1.4c-0.8,0-1.4-0.6-1.4-1.4c0-0.8,0.6-1.4,1.4-1.4
			C106.9,30.8,107.5,31.4,107.5,32.2"/>
		<path class="st2" d="M116.2,30.8c0.8,0,1.4,0.6,1.4,1.4c0,0.8-0.6,1.4-1.4,1.4c-0.8,0-1.4-0.6-1.4-1.4
			C114.7,31.5,115.4,30.8,116.2,30.8"/>
		<path class="st2" d="M126.3,30.8c0.8,0,1.4,0.6,1.4,1.4c0,0.8-0.6,1.4-1.4,1.4c-0.8,0-1.4-0.6-1.4-1.4
			C124.9,31.5,125.5,30.8,126.3,30.8"/>
		<path class="st2" d="M137.9,32.2c0,0.8-0.6,1.4-1.4,1.4c-0.8,0-1.4-0.6-1.4-1.4c0-0.8,0.6-1.4,1.4-1.4
			C137.2,30.8,137.9,31.4,137.9,32.2"/>
		<path class="st2" d="M25,90.7c0.8,0,1.4,0.6,1.4,1.4c0,0.8-0.6,1.4-1.4,1.4c-0.8,0-1.4-0.6-1.4-1.4C23.6,91.4,24.3,90.7,25,90.7"
			/>
		<path class="st2" d="M35.2,90.7c0.8,0,1.4,0.6,1.4,1.4c0,0.8-0.6,1.4-1.4,1.4c-0.8,0-1.4-0.6-1.4-1.4
			C33.7,91.4,34.4,90.7,35.2,90.7"/>
		<path class="st2" d="M46.7,92.1c0,0.8-0.6,1.4-1.4,1.4c-0.8,0-1.4-0.6-1.4-1.4c0-0.8,0.6-1.4,1.4-1.4
			C46.1,90.7,46.7,91.4,46.7,92.1"/>
		<path class="st2" d="M55.4,90.7c0.8,0,1.4,0.6,1.4,1.4c0,0.8-0.6,1.4-1.4,1.4c-0.8,0-1.4-0.6-1.4-1.4C54,91.4,54.6,90.7,55.4,90.7
			"/>
		<path class="st2" d="M65.6,90.7c0.8,0,1.4,0.6,1.4,1.4c0,0.8-0.6,1.4-1.4,1.4c-0.8,0-1.4-0.6-1.4-1.4
			C64.1,91.4,64.8,90.7,65.6,90.7"/>
		<path class="st2" d="M77.1,92.1c0,0.8-0.6,1.4-1.4,1.4c-0.8,0-1.4-0.6-1.4-1.4c0-0.8,0.6-1.4,1.4-1.4
			C76.5,90.7,77.1,91.4,77.1,92.1"/>
		<path class="st2" d="M85.8,90.7c0.8,0,1.4,0.6,1.4,1.4c0,0.8-0.6,1.4-1.4,1.4c-0.8,0-1.4-0.6-1.4-1.4C84.4,91.4,85,90.7,85.8,90.7
			"/>
		<path class="st2" d="M95.9,90.7c0.8,0,1.4,0.6,1.4,1.4c0,0.8-0.6,1.4-1.4,1.4c-0.8,0-1.4-0.6-1.4-1.4
			C94.5,91.4,95.1,90.7,95.9,90.7"/>
		<path class="st2" d="M107.5,92.1c0,0.8-0.6,1.4-1.4,1.4c-0.8,0-1.4-0.6-1.4-1.4c0-0.8,0.6-1.4,1.4-1.4
			C106.9,90.7,107.5,91.4,107.5,92.1"/>
		<path class="st2" d="M116.2,90.7c0.8,0,1.4,0.6,1.4,1.4c0,0.8-0.6,1.4-1.4,1.4c-0.8,0-1.4-0.6-1.4-1.4
			C114.7,91.4,115.4,90.7,116.2,90.7"/>
		<path class="st2" d="M126.3,90.7c0.8,0,1.4,0.6,1.4,1.4c0,0.8-0.6,1.4-1.4,1.4c-0.8,0-1.4-0.6-1.4-1.4
			C124.9,91.4,125.5,90.7,126.3,90.7"/>
		<path class="st2" d="M137.9,92.1c0,0.8-0.6,1.4-1.4,1.4c-0.8,0-1.4-0.6-1.4-1.4c0-0.8,0.6-1.4,1.4-1.4
			C137.2,90.7,137.9,91.4,137.9,92.1"/>
		<path class="st2" d="M25,101c0.8,0,1.4,0.6,1.4,1.4c0,0.8-0.6,1.4-1.4,1.4c-0.8,0-1.4-0.6-1.4-1.4C23.6,101.7,24.3,101,25,101"/>
		<path class="st2" d="M35.2,101c0.8,0,1.4,0.6,1.4,1.4c0,0.8-0.6,1.4-1.4,1.4c-0.8,0-1.4-0.6-1.4-1.4C33.7,101.7,34.4,101,35.2,101
			"/>
		<path class="st2" d="M46.7,102.4c0,0.8-0.6,1.4-1.4,1.4c-0.8,0-1.4-0.6-1.4-1.4c0-0.8,0.6-1.4,1.4-1.4
			C46.1,101,46.7,101.7,46.7,102.4"/>
		<path class="st2" d="M55.4,101c0.8,0,1.4,0.6,1.4,1.4c0,0.8-0.6,1.4-1.4,1.4c-0.8,0-1.4-0.6-1.4-1.4C54,101.7,54.6,101,55.4,101"
			/>
		<path class="st2" d="M65.6,101c0.8,0,1.4,0.6,1.4,1.4c0,0.8-0.6,1.4-1.4,1.4c-0.8,0-1.4-0.6-1.4-1.4C64.1,101.7,64.8,101,65.6,101
			"/>
		<path class="st2" d="M77.1,102.4c0,0.8-0.6,1.4-1.4,1.4c-0.8,0-1.4-0.6-1.4-1.4c0-0.8,0.6-1.4,1.4-1.4
			C76.5,101,77.1,101.7,77.1,102.4"/>
		<path class="st2" d="M85.8,101c0.8,0,1.4,0.6,1.4,1.4c0,0.8-0.6,1.4-1.4,1.4c-0.8,0-1.4-0.6-1.4-1.4C84.4,101.7,85,101,85.8,101"
			/>
		<path class="st2" d="M95.9,101c0.8,0,1.4,0.6,1.4,1.4c0,0.8-0.6,1.4-1.4,1.4c-0.8,0-1.4-0.6-1.4-1.4C94.5,101.7,95.1,101,95.9,101
			"/>
		<path class="st2" d="M107.5,102.4c0,0.8-0.6,1.4-1.4,1.4c-0.8,0-1.4-0.6-1.4-1.4c0-0.8,0.6-1.4,1.4-1.4
			C106.9,101,107.5,101.7,107.5,102.4"/>
		<path class="st2" d="M116.2,101c0.8,0,1.4,0.6,1.4,1.4c0,0.8-0.6,1.4-1.4,1.4c-0.8,0-1.4-0.6-1.4-1.4
			C114.7,101.7,115.4,101,116.2,101"/>
		<path class="st2" d="M126.3,101c0.8,0,1.4,0.6,1.4,1.4c0,0.8-0.6,1.4-1.4,1.4c-0.8,0-1.4-0.6-1.4-1.4
			C124.9,101.7,125.5,101,126.3,101"/>
		<path class="st2" d="M137.9,102.4c0,0.8-0.6,1.4-1.4,1.4c-0.8,0-1.4-0.6-1.4-1.4c0-0.8,0.6-1.4,1.4-1.4
			C137.2,101,137.9,101.7,137.9,102.4"/>
		<path class="st2" d="M35.2,110.9c0.8,0,1.4,0.6,1.4,1.4c0,0.8-0.6,1.4-1.4,1.4c-0.8,0-1.4-0.6-1.4-1.4
			C33.7,111.5,34.4,110.9,35.2,110.9"/>
		<path class="st2" d="M46.7,112.3c0,0.8-0.6,1.4-1.4,1.4c-0.8,0-1.4-0.6-1.4-1.4c0-0.8,0.6-1.4,1.4-1.4
			C46.1,110.9,46.7,111.5,46.7,112.3"/>
		<path class="st2" d="M55.4,110.9c0.8,0,1.4,0.6,1.4,1.4c0,0.8-0.6,1.4-1.4,1.4c-0.8,0-1.4-0.6-1.4-1.4
			C54,111.5,54.6,110.9,55.4,110.9"/>
		<path class="st2" d="M65.6,110.9c0.8,0,1.4,0.6,1.4,1.4c0,0.8-0.6,1.4-1.4,1.4c-0.8,0-1.4-0.6-1.4-1.4
			C64.1,111.5,64.8,110.9,65.6,110.9"/>
		<path class="st2" d="M77.1,112.3c0,0.8-0.6,1.4-1.4,1.4c-0.8,0-1.4-0.6-1.4-1.4c0-0.8,0.6-1.4,1.4-1.4
			C76.5,110.9,77.1,111.5,77.1,112.3"/>
		<path class="st2" d="M85.8,110.9c0.8,0,1.4,0.6,1.4,1.4c0,0.8-0.6,1.4-1.4,1.4c-0.8,0-1.4-0.6-1.4-1.4
			C84.4,111.5,85,110.9,85.8,110.9"/>
		<path class="st2" d="M95.9,110.9c0.8,0,1.4,0.6,1.4,1.4c0,0.8-0.6,1.4-1.4,1.4c-0.8,0-1.4-0.6-1.4-1.4
			C94.5,111.5,95.1,110.9,95.9,110.9"/>
		<path class="st2" d="M107.5,112.3c0,0.8-0.6,1.4-1.4,1.4c-0.8,0-1.4-0.6-1.4-1.4c0-0.8,0.6-1.4,1.4-1.4
			C106.9,110.9,107.5,111.5,107.5,112.3"/>
		<path class="st2" d="M116.2,110.9c0.8,0,1.4,0.6,1.4,1.4c0,0.8-0.6,1.4-1.4,1.4c-0.8,0-1.4-0.6-1.4-1.4
			C114.7,111.5,115.4,110.9,116.2,110.9"/>
		<path class="st2" d="M126.3,110.9c0.8,0,1.4,0.6,1.4,1.4c0,0.8-0.6,1.4-1.4,1.4c-0.8,0-1.4-0.6-1.4-1.4
			C124.9,111.5,125.5,110.9,126.3,110.9"/>
		<path class="st2" d="M46.7,122c0,0.8-0.6,1.4-1.4,1.4c-0.8,0-1.4-0.6-1.4-1.4s0.6-1.4,1.4-1.4C46.1,120.6,46.7,121.2,46.7,122"/>
		<path class="st2" d="M55.4,120.6c0.8,0,1.4,0.6,1.4,1.4c0,0.8-0.6,1.4-1.4,1.4c-0.8,0-1.4-0.6-1.4-1.4
			C54,121.2,54.6,120.6,55.4,120.6"/>
		<path class="st2" d="M65.6,120.6c0.8,0,1.4,0.6,1.4,1.4c0,0.8-0.6,1.4-1.4,1.4c-0.8,0-1.4-0.6-1.4-1.4
			C64.1,121.2,64.8,120.6,65.6,120.6"/>
		<path class="st2" d="M77.1,122c0,0.8-0.6,1.4-1.4,1.4c-0.8,0-1.4-0.6-1.4-1.4s0.6-1.4,1.4-1.4C76.5,120.6,77.1,121.2,77.1,122"/>
		<path class="st2" d="M85.8,120.6c0.8,0,1.4,0.6,1.4,1.4c0,0.8-0.6,1.4-1.4,1.4c-0.8,0-1.4-0.6-1.4-1.4
			C84.4,121.2,85,120.6,85.8,120.6"/>
		<path class="st2" d="M95.9,120.6c0.8,0,1.4,0.6,1.4,1.4c0,0.8-0.6,1.4-1.4,1.4c-0.8,0-1.4-0.6-1.4-1.4
			C94.5,121.2,95.1,120.6,95.9,120.6"/>
		<path class="st2" d="M107.5,122c0,0.8-0.6,1.4-1.4,1.4c-0.8,0-1.4-0.6-1.4-1.4s0.6-1.4,1.4-1.4C106.9,120.6,107.5,121.2,107.5,122
			"/>
		<path class="st2" d="M116.2,120.6c0.8,0,1.4,0.6,1.4,1.4c0,0.8-0.6,1.4-1.4,1.4c-0.8,0-1.4-0.6-1.4-1.4
			C114.7,121.2,115.4,120.6,116.2,120.6"/>
		<path class="st2" d="M65.6,130.6c0.8,0,1.4,0.6,1.4,1.4c0,0.8-0.6,1.4-1.4,1.4c-0.8,0-1.4-0.6-1.4-1.4
			C64.1,131.3,64.8,130.6,65.6,130.6"/>
		<path class="st2" d="M77.1,132c0,0.8-0.6,1.4-1.4,1.4c-0.8,0-1.4-0.6-1.4-1.4s0.6-1.4,1.4-1.4C76.5,130.6,77.1,131.3,77.1,132"/>
		<path class="st2" d="M85.8,130.6c0.8,0,1.4,0.6,1.4,1.4c0,0.8-0.6,1.4-1.4,1.4c-0.8,0-1.4-0.6-1.4-1.4
			C84.4,131.3,85,130.6,85.8,130.6"/>
		<path class="st2" d="M95.9,130.6c0.8,0,1.4,0.6,1.4,1.4c0,0.8-0.6,1.4-1.4,1.4c-0.8,0-1.4-0.6-1.4-1.4
			C94.5,131.3,95.1,130.6,95.9,130.6"/>
	</g>
	<g class="st1">
		<circle class="st3" cx="109" cy="59" r="57"/>
		<text transform="matrix(1 0 0 1 76.374 49.77)"><tspan x="0" y="0" class="st4 st5 st6">Universal </tspan><tspan x="0" y="12.3" class="st4 st5 st6">Compatancy </tspan><tspan x="0" y="24.5" class="st4 st5 st6">Framework</tspan></text>
	</g>
	<g class="st1">
		<circle class="st7" cx="168.5" cy="85.5" r="19.5"/>
		<text transform="matrix(1 0 0 1 158.4727 87.873)" class="st4 st5 st8">START</text>
	</g>
</g>
</svg>
